<?xml version="1.0" encoding="UTF-8"?>
<svg id="Capa_1" data-name="Capa 1" xmlns="http://www.w3.org/2000/svg" viewBox="0 0 799.99 781.75">
  <defs>
    <style>
      .cls-1 {
        fill: #22205f;
        stroke-width: 0px;
      }
    </style>
  </defs>
  <path class="cls-1" d="m615.36,682.77c0,21.99-2.77,98.98-79.74,98.98-41.24,0-60.49-68.74-151.15-68.74-60.46,0-49.49,24.7-162.15,24.7s-178.69-54.94-178.69-137.39c0-98.98,59.98-67.17,120.94-115.43,66-52.23,60.49-93.47,142.96-93.47,68.68,0,107.05,93.91,153.89,112.69,68.71,27.47,153.93,120.94,153.93,178.66ZM115.68,360.14c1.8-46.97-18.08-86.76-56.01-86.76-39.79,0-59.67,39.79-59.67,72.27,0,45.21,25.3,88.56,59.67,88.56,34.34-.03,54.19-27.06,56.01-74.06Zm285.48-43.38c34.34,0,79.51-63.23,81.31-110.23,1.83-47-3.59-95.74-41.55-95.74s-95.77,59.6-95.77,108.4c0,45.18,21.71,97.57,56.01,97.57Zm137.36,115.65c50.56,0,81.34-56.01,83.14-103.02s-9.04-86.76-47-86.76c-61.4,0-92.15,59.67-92.15,108.44,0,45.18,21.67,81.34,56.01,81.34Zm160.79-37.93c-61.43,0-97.57,70.41-97.57,119.24,0,45.21,28.89,77.72,63.26,77.72,50.56,0,83.14-50.56,84.9-97.57,1.8-47.03-12.66-99.39-50.59-99.39Zm-487.86-61.46c34.34,0,61.43-25.27,61.43-72.3,0-79.48,36.1-159-1.8-159-75.92,0-119.3,110.2-119.3,142.74,0,45.21,25.3,88.56,59.67,88.56Zm-146.77-86.67c10.52,2.87,20.35,8.19,20.07-6.68-.47-23.22,1.92-61.12-9.55-62.09-6.84-.54-25.96,39.28-31.44,59.07-5.1,18.81,8.79,6.43,20.92,9.7Zm214-182.22c11.5,3.5,22.18,9.42,22.84-4.66,1.13-22.02,6.46-57.62-6.27-59.45-7.5-1.1-31.66,34.91-39.16,53.15-7.03,17.36,9.33,6.77,22.59,10.96Zm203.7,13.04c10.52,2.87,20.57,8.19,20.1-6.71-.95-26.75-2.84-63.83-14.27-64.8-6.8-.57-22.15,33.52-27.6,53.3-5.14,18.84,9.67,14.9,21.77,18.21Zm167.88,102.67c10.52,2.9,20.6,8.22,20.07-6.68-.91-26.75-7.25-76.81-18.71-77.72-6.8-.57-16.92,39.22-25.05,60.74-6.87,18.21,11.59,20.38,23.69,23.66Zm131.72,112.09c-6.8-.57-17.61,27.25-23.06,47.07-5.1,18.81,8.85,16.73,20.98,20.04,10.52,2.87,20.57,8.19,20.07-6.68-.98-26.75-6.52-59.48-17.99-60.42Z"/>
</svg>