<?xml version="1.0" encoding="utf-8"?>
<!-- Generator: Adobe Illustrator 28.0.0, SVG Export Plug-In . SVG Version: 6.00 Build 0)  -->
<svg version="1.1" id="Lager_1" xmlns="http://www.w3.org/2000/svg" xmlns:xlink="http://www.w3.org/1999/xlink" x="0px" y="0px"
	 viewBox="0 0 419.5 297.6" style="enable-background:new 0 0 419.5 297.6;" xml:space="preserve">
<style type="text/css">
	.st0{fill:#FFFFFF;}
</style>
<g>
	<g>
		<path class="st0" d="M61.2,104.1c6-7.4,12.8-14.9,22.1-18c2-0.6,2.2-0.6,4.4,0.2c2.9,1.1,2.2,1.8,1.3,4.3c-0.8,2.5-2.2,5-3.6,7.3
			c-2.6,4.5-5.5,8.8-8.3,13.1c-5.6,8.7-11.2,17.4-16.3,26.3c-4.7,8.1-9.7,16.7-11.7,26c-0.1,0.5,0.2,1.1,0.7,1.3
			c6.1,1.4,12-8.6,15-12.7c1.6-2.2,3.2-4.4,5-6.4c1-1.1,1.9-2.3,3.4-2.9c2.1-0.8,1.3-0.2,0.8,1.5c-1.4,4.7-4,9-5.2,13.8
			c-0.9,3.4-1.7,12,4.3,8.4c3.3-2.1,6.2-6.8,8.1-10.2c2.3-3.9,3.9-8.1,5.1-12.4c0.2-0.9-0.9-1.6-1.6-0.9c-2,2-3.8,4.1-5.4,6.5
			c0.6,0.4,1.3,0.7,1.9,1.1c6.7-10.5,12.5-21.7,17.7-33c4.9-10.6,8.7-21.9,17.2-30.2c-0.6-0.5-1.2-0.9-1.8-1.4
			c-5.4,11-10.7,22.2-14.6,33.8c-1.9,5.7-3.5,11.6-4.5,17.6c-0.7,4.1-2,9.8,0,13.7c4.5,8.5,13.1-4.8,15.6-7.7
			c1.9-2.2,3.9-4.4,6.1-6.4c1.2-2.3,2.3-2.6,3.2-0.7c1.1,0.6,1.2,1.3,0.5,2c-0.2,1.3-1.7,3-2.3,4.2c-3.4,6.1-6.8,12.3-10.2,18.4
			c-0.5,1,0.5,2,1.5,1.5c10.1-5.5,15.5-16.5,25.5-22.1c-0.4-0.3-0.8-0.6-1.2-1c-1.4,6.6-6.9,11.3-8,17.9c-0.2,1,1,1.9,1.9,1.1
			c3.5-3.6,7.1-7.1,11.1-10.2c0.9-0.7,2.2-2,3.3-2.4c1-0.9,2.1-0.9,3.4,0.2c2.1-0.4,3.1,0.3,2.9,1.9c0.9,2.1,0.1,5.7,0.3,8
			c0.6,6.2,3.3,12.5,10,13.9c1.4,0.3,1.9-1.8,0.6-2.1c-7.8-1.7-8.4-10.4-8.7-16.9c-0.1-2.8-0.2-6.9-3.1-8.3
			c-3.2-1.5-6.7,1.8-9.1,3.5c-4.4,3.2-8.5,6.8-12.2,10.8c0.6,0.4,1.2,0.7,1.9,1.1c1-6.7,6.3-11.5,7.5-18.1c0.1-0.7-0.6-1.3-1.2-1
			c-10.1,5.4-15.9,15.9-25.8,21.7c0.5,0.5,1,1,1.5,1.5c3-5.7,6-11.3,9-17c1.2-2.3,5.8-7.9,4-10.9c-3.2-5.2-13.5,8-15.2,9.8
			c-1.4,1.6-2.7,4.1-4.5,5.3c-8,5.2-6-6.3-5.6-9.3c0.9-6,2.4-11.9,4.2-17.6c3.8-12.1,9.3-23.6,14.5-35.1c0.5-1.1-0.9-2.5-1.8-1.4
			c-7.5,8.5-11.8,19-16.5,29.2c-5.6,11.9-12,23.2-18.6,34.6c-0.7,1.2,1.1,2.3,1.9,1.1c1.4-2.3,3-4.3,4.8-6.3c-0.5-0.3-1-0.6-1.6-0.9
			c-1,4-2.5,7.8-4.6,11.3c-1.3,2.2-2.7,4.2-4.3,6.2c-1.4,1.7-2.3,3.7-4.3,2.7c-2.9-1.3,1-9.1,1.9-11.4c1.5-3.6,2.8-7.2,3.4-11.1
			c0.1-0.4-0.1-1-0.6-1.1c-4.5-0.7-7.7,5.1-10.1,8.1c-2.5,3.2-10.3,16.1-15.4,14.7c0.2,0.4,0.5,0.8,0.7,1.3
			c6.3-25.7,26.7-45.4,37.9-68.7c2.7-5.7,4.1-13.3-4.6-10.8c-10.1,2.9-17.6,11.1-23.9,19.1C60.1,103.9,60.8,104.5,61.2,104.1
			L61.2,104.1z"/>
	</g>
</g>
<g>
	<g>
		<path class="st0" d="M225.1,100.7c-9,18.3-20.4,39.2-20.2,60.1c0,0.7,1.1,0.9,1.2,0.2c1.6-10.3,3.3-20,6.8-29.8
			c3.7-10.3,8.3-20.1,13-30C226.2,100.6,225.4,100.1,225.1,100.7L225.1,100.7z"/>
	</g>
</g>
<g>
	<g>
		<path class="st0" d="M198.9,101c-4.4-15.7,19.1-16.1,28.7-15.7c5.8,0.3,11.7,1.1,17.3,2.5c4.5,1.2,13.8,3,15.8,8
			c2.9,7.3-5.5,13-10.5,16.5c-4.3,3.1-8.9,5.9-13.5,8.5c-10,5.5-21.4,12.9-32.9,14.1c0.2,0.6,0.5,1.1,0.7,1.7
			c8.5-6.8,21.3-7.2,30-0.5c12,9.2-1.4,24.8-8.4,32.9c-7,8.1-15.2,15.2-24.1,21.2c-4.6,3.1-9.6,6.2-15.1,7.4
			c-6.9,1.4-13.6-0.9-20.2-2.7c-0.8-0.2-1.4,1.1-0.6,1.5c6.1,2.9,12.9,4.9,19.7,3.9c7-1,13.1-5,18.7-9c11.2-7.9,21.3-17.5,29.1-28.9
			c6.3-9.1,11.8-20.7,0.6-28.3c-9.3-6.3-22-5.5-31,1.1c-0.7,0.5-0.6,2,0.5,1.9c7.4-0.7,13.9-4.2,20.4-7.5
			c7.4-3.8,14.7-7.6,21.7-12.1c6.6-4.3,24.3-15.2,14.5-24.7c-4.4-4.2-11.9-5.8-17.6-7.1c-7.3-1.6-14.8-2.2-22.3-1.8
			c-9.7,0.4-26.4,4.2-22.6,17.6C198.1,101.8,199,101.6,198.9,101L198.9,101z"/>
	</g>
</g>
<g>
	<g>
		<path class="st0" d="M279,101.1c-0.2,6-3.3,11.5-5.8,16.8c-2.4,5.1-4.8,10.2-7.3,15.2c-4.9,9.8-9.9,19.6-15.1,29.3
			c-4.7,8.6-10.2,17.1-13.4,26.5c-0.5,1.5-2.3,5.2-0.5,6.7c1,0.8,2.3,0.4,2.8-0.7c0.4-0.9-0.7-1.5-1.3-0.8c-0.5-1-0.4-2,0.2-3
			c0.3-1.2,0.7-2.3,1.1-3.4c0.8-2.2,1.8-4.3,2.8-6.4c1.9-3.8,4-7.6,6.1-11.3c4.3-8,8.6-16.1,12.7-24.2c3.9-7.8,7.8-15.7,11.5-23.7
			c2.9-6.2,7.4-13.8,6.9-20.9C279.7,100.6,279.1,100.6,279,101.1L279,101.1z"/>
	</g>
</g>
<g>
	<g>
		<path class="st0" d="M255.1,152.6c-0.2-0.6-0.1-0.5-0.5-1s-1.2-0.1-0.9,0.5c2,3.3,4.6,6.8,8.7,7.3c2.3,0.2,4.6-0.5,6.6-1.6
			c0.5-0.3,5.1-3.9,5.3-3.8c0.4,0.3,0.5,3.7,1.4,4.5s2,0.8,3.1,0.7c2.1-0.2,4-1.8,5.8-2.7c1.5-0.8,3.1-1.7,4.8-2.2
			c2-0.6,9-2.1,6.3,3.8c-0.4,0.9,0.7,1.6,1.3,0.8c2.6-3.6,7.3-6,11.4-7.2c2.2-0.6,5.9-1.7,5,2.3c-0.3,1.4-2,3-2.6,4.5
			c-0.2,0.5,0.3,1,0.7,1c7.9-0.4,15.3-3.5,23.3-3.6c7.7,0,15.1,2.6,22.7,2.8c7.5,0.2,14.8-1.3,22.1-2.4c8.1-1.3,17.1-1.4,24.8-4.3
			c0.6-0.2,0.6-1.2-0.2-1.1c-18.5,1.7-37.1,8.7-55.8,5.1c-7.6-1.4-15-2.2-22.7-0.9c-1.6,0.3-3.2,0.7-4.9,1.1c-1.4,0.4-5.1,2-6.5,1.5
			c-3-1-0.5-2.2,0.1-4.2c0.4-1.3,0.3-1.4,0.3-2.7c0-0.2-0.1-0.4-0.4-0.5c-6.4-1.2-15.3,2.7-19,7.9c0.5,0.2,0.9,0.4,1.4,0.6
			c1.6-3.8-1.2-6.7-5-6.4c-2.5,0.2-5,1.4-7.2,2.5c-1.3,0.6-2.7,1.8-4,2.2c-5.9,1.6-4.7-1.4-5.6-4.3c-0.2-0.5-0.7-0.6-1-0.3
			c-2.8,2.3-5.8,5.3-9.6,5.6c-4.9,0.4-7.2-2.8-9.9-6.3c-0.3,0.2-0.5,0.4-0.8,0.6c0.2,0.2,0.3,0.5,0.5,0.7
			C254.5,153.4,255.2,153.1,255.1,152.6L255.1,152.6z"/>
	</g>
</g>
<g>
	<g>
		<path class="st0" d="M314.2,104c-3.8,5-6.2,11.2-9,16.9c-3.3,6.7-6.5,13.5-9.7,20.2c-3,6.3-6.1,12.6-9.1,19
			c-2.6,5.6-5.6,11.5-6.7,17.6c-0.1,0.7,0.9,1.3,1.3,0.5c5.4-12.4,10.8-24.8,16.6-37c5.8-12.1,10.7-25.1,17.7-36.5
			C315.5,103.9,314.6,103.4,314.2,104L314.2,104z"/>
	</g>
</g>
<g>
	<g>
		<path class="st0" d="M304.6,155.9L304.6,155.9L304.6,155.9L304.6,155.9z"/>
	</g>
</g>
<g>
	<g>
		<path class="st0" d="M393.6,161.4c-0.2,0.1-0.5,0.3-0.7,0.4c-1,0.5-0.1,1.9,0.9,1.5c0.3-0.1,0.5-0.2,0.8-0.4
			C395.5,162.4,394.6,160.9,393.6,161.4L393.6,161.4z"/>
	</g>
</g>
</svg>
