<?xml version="1.0" encoding="UTF-8"?>
<svg id="Lager_1" data-name="Lager 1" xmlns="http://www.w3.org/2000/svg" viewBox="0 0 355.75 116.78">
  <defs>
    <style>
      .cls-1 {
        fill: #fff;
      }

      .cls-1, .cls-2 {
        stroke-width: 0px;
      }

      .cls-2 {
        fill: #22205f;
      }
    </style>
  </defs>
  <path class="cls-2" d="m12.12,20.32c6-7.4,12.8-14.9,22.1-18,2-.6,2.2-.6,4.4.2,2.9,1.1,2.2,1.8,1.3,4.3-.8,2.5-2.2,5-3.6,7.3-2.6,4.5-5.5,8.8-8.3,13.1-5.6,8.7-11.2,17.4-16.3,26.3C7.02,61.62,2.02,70.22.02,79.52c-.1.5.2,1.1.7,1.3,6.1,1.4,12-8.6,15-12.7,1.6-2.2,3.2-4.4,5-6.4,1-1.1,1.9-2.3,3.4-2.9,2.1-.8,1.3-.2.8,1.5-1.4,4.7-4,9-5.2,13.8-.9,3.4-1.7,12,4.3,8.4,3.3-2.1,6.2-6.8,8.1-10.2,2.3-3.9,3.9-8.1,5.1-12.4.2-.9-.9-1.6-1.6-.9-2,2-3.8,4.1-5.4,6.5.6.4,1.3.7,1.9,1.1,6.7-10.5,12.5-21.7,17.7-33,4.9-10.6,8.7-21.9,17.2-30.2-.6-.5-1.2-.9-1.8-1.4-5.4,11-10.7,22.2-14.6,33.8-1.9,5.7-3.5,11.6-4.5,17.6-.7,4.1-2,9.8,0,13.7,4.5,8.5,13.1-4.8,15.6-7.7,1.9-2.2,3.9-4.4,6.1-6.4,1.2-2.3,2.3-2.6,3.2-.7,1.1.6,1.2,1.3.5,2-.2,1.3-1.7,3-2.3,4.2-3.4,6.1-6.8,12.3-10.2,18.4-.5,1,.5,2,1.5,1.5,10.1-5.5,15.5-16.5,25.5-22.1-.4-.3-.8-.6-1.2-1-1.4,6.6-6.9,11.3-8,17.9-.2,1,1,1.9,1.9,1.1,3.5-3.6,7.1-7.1,11.1-10.2.9-.7,2.2-2,3.3-2.4,1-.9,2.1-.9,3.4.2,2.1-.4,3.1.3,2.9,1.9.9,2.1.1,5.7.3,8,.6,6.2,3.3,12.5,10,13.9,1.4.3,1.9-1.8.6-2.1-7.8-1.7-8.4-10.4-8.7-16.9-.1-2.8-.2-6.9-3.1-8.3-3.2-1.5-6.7,1.8-9.1,3.5-4.4,3.2-8.5,6.8-12.2,10.8.6.4,1.2.7,1.9,1.1,1-6.7,6.3-11.5,7.5-18.1.1-.7-.6-1.3-1.2-1-10.1,5.4-15.9,15.9-25.8,21.7l1.5,1.5c3-5.7,6-11.3,9-17,1.2-2.3,5.8-7.9,4-10.9-3.2-5.2-13.5,8-15.2,9.8-1.4,1.6-2.7,4.1-4.5,5.3-8,5.2-6-6.3-5.6-9.3.9-6,2.4-11.9,4.2-17.6,3.8-12.1,9.3-23.6,14.5-35.1.5-1.1-.9-2.5-1.8-1.4-7.5,8.5-11.8,19-16.5,29.2-5.6,11.9-12,23.2-18.6,34.6-.7,1.2,1.1,2.3,1.9,1.1,1.4-2.3,3-4.3,4.8-6.3-.5-.3-1-.6-1.6-.9-1,4-2.5,7.8-4.6,11.3-1.3,2.2-2.7,4.2-4.3,6.2-1.4,1.7-2.3,3.7-4.3,2.7-2.9-1.3,1-9.1,1.9-11.4,1.5-3.6,2.8-7.2,3.4-11.1.1-.4-.1-1-.6-1.1-4.5-.7-7.7,5.1-10.1,8.1-2.5,3.2-10.3,16.1-15.4,14.7.2.4.5.8.7,1.3C8.72,54.42,29.12,34.72,40.32,11.42c2.7-5.7,4.1-13.3-4.6-10.8-10.1,2.9-17.6,11.1-23.9,19.1-.8.4-.1,1,.3.6h0Z"/>
  <path class="cls-2" d="m176.02,16.92c-9,18.3-20.4,39.2-20.2,60.1,0,.7,1.1.9,1.2.2,1.6-10.3,3.3-20,6.8-29.8,3.7-10.3,8.3-20.1,13-30,.3-.6-.5-1.1-.8-.5h0Z"/>
  <path class="cls-2" d="m149.82,17.22c-4.4-15.7,19.1-16.1,28.7-15.7,5.8.3,11.7,1.1,17.3,2.5,4.5,1.2,13.8,3,15.8,8,2.9,7.3-5.5,13-10.5,16.5-4.3,3.1-8.9,5.9-13.5,8.5-10,5.5-21.4,12.9-32.9,14.1.2.6.5,1.1.7,1.7,8.5-6.8,21.3-7.2,30-.5,12,9.2-1.4,24.8-8.4,32.9-7,8.1-15.2,15.2-24.1,21.2-4.6,3.1-9.6,6.2-15.1,7.4-6.9,1.4-13.6-.9-20.2-2.7-.8-.2-1.4,1.1-.6,1.5,6.1,2.9,12.9,4.9,19.7,3.9,7-1,13.1-5,18.7-9,11.2-7.9,21.3-17.5,29.1-28.9,6.3-9.1,11.8-20.7.6-28.3-9.3-6.3-22-5.5-31,1.1-.7.5-.6,2,.5,1.9,7.4-.7,13.9-4.2,20.4-7.5,7.4-3.8,14.7-7.6,21.7-12.1,6.6-4.3,24.3-15.2,14.5-24.7-4.4-4.2-11.9-5.8-17.6-7.1-7.3-1.6-14.8-2.2-22.3-1.8-9.7.4-26.4,4.2-22.6,17.6.3.3,1.2.1,1.1-.5h0Z"/>
  <path class="cls-2" d="m229.92,17.32c-.2,6-3.3,11.5-5.8,16.8-2.4,5.1-4.8,10.2-7.3,15.2-4.9,9.8-9.9,19.6-15.1,29.3-4.7,8.6-10.2,17.1-13.4,26.5-.5,1.5-2.3,5.2-.5,6.7,1,.8,2.3.4,2.8-.7.4-.9-.7-1.5-1.3-.8-.5-1-.4-2,.2-3,.3-1.2.7-2.3,1.1-3.4.8-2.2,1.8-4.3,2.8-6.4,1.9-3.8,4-7.6,6.1-11.3,4.3-8,8.6-16.1,12.7-24.2,3.9-7.8,7.8-15.7,11.5-23.7,2.9-6.2,7.4-13.8,6.9-20.9,0-.6-.6-.6-.7-.1h0Z"/>
  <path class="cls-2" d="m206.02,68.82c-.2-.6-.1-.5-.5-1s-1.2-.1-.9.5c2,3.3,4.6,6.8,8.7,7.3,2.3.2,4.6-.5,6.6-1.6.5-.3,5.1-3.9,5.3-3.8.4.3.5,3.7,1.4,4.5s2,.8,3.1.7c2.1-.2,4-1.8,5.8-2.7,1.5-.8,3.1-1.7,4.8-2.2,2-.6,9-2.1,6.3,3.8-.4.9.7,1.6,1.3.8,2.6-3.6,7.3-6,11.4-7.2,2.2-.6,5.9-1.7,5,2.3-.3,1.4-2,3-2.6,4.5-.2.5.3,1,.7,1,7.9-.4,15.3-3.5,23.3-3.6,7.7,0,15.1,2.6,22.7,2.8,7.5.2,14.8-1.3,22.1-2.4,8.1-1.3,17.1-1.4,24.8-4.3.6-.2.6-1.2-.2-1.1-18.5,1.7-37.1,8.7-55.8,5.1-7.6-1.4-15-2.2-22.7-.9-1.6.3-3.2.7-4.9,1.1-1.4.4-5.1,2-6.5,1.5-3-1-.5-2.2.1-4.2.4-1.3.3-1.4.3-2.7,0-.2-.1-.4-.4-.5-6.4-1.2-15.3,2.7-19,7.9.5.2.9.4,1.4.6,1.6-3.8-1.2-6.7-5-6.4-2.5.2-5,1.4-7.2,2.5-1.3.6-2.7,1.8-4,2.2-5.9,1.6-4.7-1.4-5.6-4.3-.2-.5-.7-.6-1-.3-2.8,2.3-5.8,5.3-9.6,5.6-4.9.4-7.2-2.8-9.9-6.3-.3.2-.5.4-.8.6.2.2.3.5.5.7.4.3,1.1,0,1-.5h0Z"/>
  <path class="cls-2" d="m265.12,20.22c-3.8,5-6.2,11.2-9,16.9-3.3,6.7-6.5,13.5-9.7,20.2-3,6.3-6.1,12.6-9.1,19-2.6,5.6-5.6,11.5-6.7,17.6-.1.7.9,1.3,1.3.5,5.4-12.4,10.8-24.8,16.6-37,5.8-12.1,10.7-25.1,17.7-36.5.2-.8-.7-1.3-1.1-.7h0Z"/>
  <path class="cls-1" d="m344.52,77.62c-.2.1-.5.3-.7.4-1,.5-.1,1.9.9,1.5.3-.1.5-.2.8-.4.9-.5,0-2-1-1.5h0Z"/>
</svg>