<?xml version="1.0" encoding="UTF-8"?>
<svg id="Lager_1" data-name="Lager 1" xmlns="http://www.w3.org/2000/svg" viewBox="0 0 12 9">
  <defs>
    <style>
      .cls-1 {
        fill: #22205f;
        stroke-width: 0px;
      }
    </style>
  </defs>
  <path class="cls-1" d="m1.12,0C.5,0,0,.5,0,1.13c0,.35.17.69.45.9l5.1,3.83c.27.2.63.2.9,0l5.1-3.83c.28-.21.45-.55.45-.9,0-.62-.5-1.12-1.12-1.12C10.88,0,1.12,0,1.12,0ZM0,2.63v4.88c0,.83.67,1.5,1.5,1.5h9c.83,0,1.5-.67,1.5-1.5V2.63l-5.1,3.83c-.53.4-1.27.4-1.8,0L0,2.63Z"/>
</svg>