<?xml version="1.0" encoding="UTF-8"?>
<svg id="Lager_1" data-name="Lager 1" xmlns="http://www.w3.org/2000/svg" viewBox="0 0 10.5 10.5">
  <defs>
    <style>
      .cls-1 {
        fill: #22205f;
        stroke-width: 0px;
      }
    </style>
  </defs>
  <path class="cls-1" d="m9.75,0H.75c-.41,0-.75.34-.75.76v8.99c0,.42.34.76.75.76h9c.41,0,.75-.34.75-.76V.76C10.5.34,10.16,0,9.75,0ZM3.17,9h-1.56V3.99h1.56v5.01h0Zm-.78-5.7c-.5,0-.9-.41-.9-.9s.4-.9.9-.9.9.41.9.9-.4.9-.9.9Zm6.61,5.7h-1.56v-2.44c0-.58-.01-1.33-.81-1.33s-.94.63-.94,1.29v2.48h-1.56V3.99h1.49v.68h.02c.21-.39.72-.81,1.47-.81,1.57,0,1.87,1.04,1.87,2.39v2.75Z"/>
</svg>