<?xml version="1.0" encoding="UTF-8"?>
<svg id="Lager_1" data-name="Lager 1" xmlns="http://www.w3.org/2000/svg" viewBox="0 0 12 12">
  <defs>
    <style>
      .cls-1 {
        fill: #22205f;
        stroke-width: 0px;
      }
    </style>
  </defs>
  <path class="cls-1" d="m3.86.58C3.68.14,3.21-.09,2.75.03L.69.6c-.41.11-.69.48-.69.9,0,5.8,4.7,10.5,10.5,10.5.42,0,.79-.28.9-.69l.56-2.06c.12-.45-.11-.93-.54-1.11l-2.25-.94c-.38-.16-.83-.05-1.09.27l-.95,1.16c-1.65-.78-2.99-2.12-3.77-3.77l1.16-.94c.32-.26.43-.7.27-1.09l-.94-2.25h0Z"/>
</svg>